#!OML:ASF F:\VICON\USERDATA\INSTALL\rory3\rory3.ASF
:FULLY-SPECIFIED
:DEGREES
215
root 4.33445 17.5228 19.01 -1.98249 -0.996172 2.40853
lowerback 10.5311 -1.04881 -4.21915
upperback 0.217503 -1.83684 1.20901
thorax -5.51247 -0.777583 3.92551
lowerneck -17.5097 -2.22063 -2.27124
upperneck 16.7812 -2.42677 -0.100433
head 8.11451 -1.30915 0.0471306
rclavicle 1.00138e-014 2.70347e-014
rhumerus -36.2881 -22.691 -74.8502
rradius 25.2093
rwrist 5.69466
rhand -18.1428 22.0125
rfingers 7.12502
rthumb 8.13255 -7.81099
lclavicle 1.00138e-014 2.70347e-014
lhumerus -24.927 -2.97495 79.869
lradius 32.7644
lwrist 8.09607
lhand -26.6711 27.2403
lfingers 7.12502
lthumb -0.102418 57.22
rfemur -30.1174 6.31531 17.1895
rtibia 19.8246
rfoot -8.09602 -9.19866
rtoes -0.873452
lfemur 16.9219 -4.59077 -27.142
ltibia 17.8689
lfoot -16.9606 -2.62562
ltoes -2.98632
216
root 4.31196 17.5061 19.2208 -2.07349 -0.871031 2.01251
lowerback 10.5125 -1.14015 -3.82509
upperback 0.275122 -1.90198 1.33312
thorax -5.44288 -0.821418 3.84067
lowerneck -17.2882 -2.20445 -2.32132
upperneck 16.5092 -2.40793 -0.0488616
head 7.98588 -1.29742 0.0788312
rclavicle 1.12313e-014 5.1684e-015
rhumerus -36.4967 -23.4801 -74.2996
rradius 24.8587
rwrist 6.73112
rhand -18.0526 22.4897
rfingers 7.12502
rthumb 8.21961 -7.33042
lclavicle 1.12313e-014 5.1684e-015
lhumerus -24.9981 -2.68105 79.9322
lradius 32.7626
lwrist 8.15177
lhand -27.1137 25.474
lfingers 7.12502
lthumb -0.529935 55.4531
rfemur -29.9637 6.07454 17.9152
rtibia 21.361
rfoot -8.28197 -8.96409
rtoes -0.772952
lfemur 17.3277 -4.84131 -26.6995
ltibia 18.6496
lfoot -16.4613 -3.0366
ltoes -2.71143
217
root 4.28631 17.5045 19.4388 -2.10602 -0.696498 1.88686
lowerback 10.3513 -1.20787 -3.70675
upperback 0.370626 -1.96931 1.36266
thorax -5.24821 -0.864183 3.80619
lowerneck -17.4204 -2.15832 -2.29445
upperneck 16.4268 -2.3629 0.027433
head 7.98142 -1.26589 0.104295
rclavicle -8.74653e-015 -5.1684e-015
rhumerus -36.4914 -24.5393 -73.7107
rradius 24.1996
rwrist 7.90371
rhand -18.2095 23.5005
rfingers 7.12502
rthumb 8.06811 -6.32552
lclavicle -8.74653e-015 -5.1684e-015
lhumerus -24.9555 -2.48086 79.9992
lradius 32.8186
lwrist 8.04992
lhand -27.0567 25.5745
lfingers 7.12502
lthumb -0.474871 55.5537
rfemur -29.9533 5.77429 18.321
rtibia 22.7117
rfoot -7.62334 -8.72816
rtoes -1.39632
lfemur 17.7023 -5.05747 -26.5595
ltibia 19.4557
lfoot -15.6888 -3.03193
ltoes -8.31065
218
root 4.25651 17.5347 19.667 -2.0715 -0.585657 1.87147
lowerback 10.2112 -1.23594 -3.74974
upperback 0.362581 -2.0065 1.37056
thorax -5.17299 -0.88335 3.83904
lowerneck -17.6198 -2.12452 -2.2996
upperneck 16.5817 -2.32438 0.0998774
head 8.06851 -1.2407 0.13096
rclavicle -1.21756e-014 -1.07344e-014
rhumerus -36.4121 -24.7641 -73.6619
rradius 23.833
rwrist 7.82183
rhand -18.2102 23.0447
rfingers 7.12502
rthumb 8.06743 -6.78131
lclavicle -1.21756e-014 -1.07344e-014
lhumerus -25.0408 -2.66393 80.1215
lradius 32.8532
lwrist 8.40366
lhand -26.2921 26.8451
lfingers 7.12502
lthumb 0.263612 56.8246
rfemur -30.1641 5.82802 18.3951
rtibia 23.813
rfoot -4.59363 -8.41398
rtoes -7.47777
lfemur 17.7868 -5.1904 -26.4722
ltibia 20.5295
lfoot -14.846 -3.3951
ltoes -12.4501
219
root 4.2316 17.5628 19.8855 -2.00742 -0.409682 1.55577
lowerback 10.3158 -1.35026 -3.43472
upperback 0.17763 -2.12026 1.49143
thorax -5.42248 -0.936253 3.8128
lowerneck -17.5477 -2.12034 -2.36955
upperneck 16.6759 -2.2889 0.0320604
head 8.08729 -1.23602 0.124214
rclavicle -3.16316e-014 -1.39149e-014
rhumerus -36.6495 -24.7296 -73.5318
rradius 23.8157
rwrist 8.07021
rhand -18.1995 21.7227
rfingers 7.12502
rthumb 8.07781 -8.10288
lclavicle -3.16316e-014 -1.39149e-014
lhumerus -25.4337 -2.51368 80.2331
lradius 32.8412
lwrist 8.40917
lhand -26.1666 27.1827
lfingers 7.12502
lthumb 0.384878 57.1621
rfemur -30.3976 5.91168 18.7207
rtibia 24.8442
rfoot -3.06582 -8.46326
rtoes -5.89674
lfemur 17.7353 -5.44642 -26.0824
ltibia 21.6086
lfoot -13.6327 -4.13789
ltoes -13.1884
220
root 4.20247 17.5754 20.081 -1.9641 -0.444297 0.638385
lowerback 10.6474 -1.39154 -2.60283
upperback 0.0280513 -2.06416 1.82129
thorax -5.78814 -0.91556 3.6989
lowerneck -17.73 -2.16401 -2.30537
upperneck 16.8925 -2.30014 -0.265063
head 8.1878 -1.26875 0.00993042
rclavicle 1.30452e-014 -1.43125e-014
rhumerus -36.8048 -25.1289 -73.1034
rradius 23.625
rwrist 8.83165
rhand -18.2496 21.3267
rfingers 7.12502
rthumb 8.0294 -8.50074
lclavicle 1.30452e-014 -1.43125e-014
lhumerus -25.7734 -2.01356 80.3922
lradius 32.946
lwrist 8.14879
lhand -26.9533 28.2659
lfingers 7.12502
lthumb -0.374957 58.2453
rfemur -30.3937 6.19448 19.7808
rtibia 25.6247
rfoot -2.53567 -8.25892
rtoes -4.77971
lfemur 17.4648 -5.67837 -25.0483
ltibia 23.179
lfoot -12.3198 -4.80882
ltoes -14.8142
